#!OML:ASF F:\VICON\USERDATA\INSTALL\rory3\rory3.ASF
:FULLY-SPECIFIED
:DEGREES
1
root 4.94232 17.9837 -29.229 -2.83451 -1.81359 -4.87701
lowerback 11.6647 0.104826 3.60516
upperback 1.45888 0.73176 2.51254
thorax -5.00341 0.312259 0.482479
lowerneck -21.69 -3.33506 -0.735616
upperneck 20.5385 -4.31093 -0.341976
head 10.1389 -2.08533 -0.640891
rclavicle 1.66482e-015 2.78299e-015
rhumerus -27.3034 -15.4958 -81.1511
rradius 25.882
rwrist 2.62063
rhand -13.7422 11.4383
rfingers 7.12502
rthumb 12.3776 -18.1752
lclavicle 1.66482e-015 2.78299e-015
lhumerus -26.6273 -5.88886 85.3825
lradius 26.7858
lwrist 7.60776
lhand -29.7088 19.4549
lfingers 7.12502
lthumb -3.03622 49.4131
rfemur -13.2798 7.88251 30.9855
rtibia 34.058
rfoot -14.7586 -5.28787
rtoes 13.1851
lfemur -19.9669 -0.0274159 -15.4475
ltibia 63.2253
lfoot 0 0
ltoes 0
2
root 4.94753 17.9702 -29.0619 -2.8416 -2.07043 -4.76167
lowerback 11.4374 0.146894 3.53955
upperback 1.38027 0.768744 2.4902
thorax -4.95951 0.331557 0.49098
lowerneck -20.6411 -3.17148 -1.00049
upperneck 20.0983 -4.05868 -0.122586
head 9.80246 -1.97122 -0.458826
rclavicle -9.19379e-016 -5.96354e-015
rhumerus -27.3608 -14.3169 -81.3506
rradius 26.4312
rwrist 2.02068
rhand -13.6367 10.8781
rfingers 7.12502
rthumb 12.4794 -18.7293
lclavicle -9.19379e-016 -5.96354e-015
lhumerus -27.2828 -5.49319 85.47
lradius 26.6527
lwrist 7.76462
lhand -25.144 33.2868
lfingers 7.12502
lthumb 1.37248 63.2621
rfemur -12.7565 7.84012 30.9534
rtibia 34.3175
rfoot -15.5678 -5.16317
rtoes 13.1003
lfemur -20.8642 0.185327 -15.5226
ltibia 62.3513
lfoot 0 0
ltoes 0
3
root 4.95177 17.9651 -28.897 -2.8383 -2.34795 -4.91166
lowerback 11.6477 0.139673 3.58526
upperback 0.921171 0.806217 2.65203
thorax -5.562 0.340171 0.630128
lowerneck -18.6803 -3.18252 -1.53216
upperneck 19.6754 -3.97903 0.0421799
head 9.31403 -1.96763 -0.264912
rclavicle 4.47266e-016 1.11319e-014
rhumerus -28.0698 -12.6892 -81.4177
rradius 27.0294
rwrist 1.62893
rhand -14.8474 14.075
rfingers 7.12502
rthumb 11.3119 -15.6
lclavicle 4.47266e-016 1.11319e-014
lhumerus -28.7655 -5.03308 85.7496
lradius 26.6441
lwrist 8.27543
lhand -20.6109 38.9154
lfingers 7.12502
lthumb 5.75006 68.8174
rfemur -12.1862 7.75432 31.2161
rtibia 34.391
rfoot -16.0966 -5.16639
rtoes 12.9559
lfemur -21.6673 0.39037 -15.2986
ltibia 61.2872
lfoot 0 0
ltoes 0
4
root 4.95531 17.9608 -28.7321 -2.80729 -2.56317 -5.02384
lowerback 11.8561 0.145774 3.65238
upperback 0.345565 0.866623 2.729
thorax -6.28808 0.35644 0.665831
lowerneck -16.3584 -3.15059 -1.95087
upperneck 19.197 -3.90197 0.207752
head 8.74165 -1.95707 -0.0856287
rclavicle -1.03368e-014 -6.36111e-015
rhumerus -29.04 -11.1681 -81.5683
rradius 27.6633
rwrist 1.59663
rhand -16.9026 20.1333
rfingers 7.12502
rthumb 9.32935 -9.64031
lclavicle -1.03368e-014 -6.36111e-015
lhumerus -30.4816 -4.67385 85.9176
lradius 26.8286
lwrist 8.59624
lhand -20.1512 41.1916
lfingers 7.12502
lthumb 6.19382 71.0811
rfemur -11.6739 7.76099 31.4236
rtibia 34.5299
rfoot -16.5654 -5.25504
rtoes 11.9363
lfemur -22.515 0.492532 -15.1317
ltibia 60.1769
lfoot 0 0
ltoes 0
5
root 4.96073 17.9511 -28.5707 -2.73924 -2.71946 -5.14347
lowerback 11.691 0.277587 4.05155
upperback 0.800047 1.05062 2.52654
thorax -5.70008 0.444254 0.196796
lowerneck -17.8235 -3.19212 -1.65214
upperneck 19.432 -4.02453 0.270905
head 9.08283 -1.97711 -0.15573
rclavicle 2.28602e-015 2.62396e-014
rhumerus -27.7834 -11.0134 -82.1528
rradius 27.9283
rwrist 1.54211
rhand -18.1651 22.5645
rfingers 7.12502
rthumb 8.11096 -7.25986
lclavicle 2.28602e-015 2.62396e-014
lhumerus -29.9146 -5.11472 85.7715
lradius 27.0337
lwrist 8.82967
lhand -29.9274 25.3188
lfingers 7.12502
lthumb -3.24736 55.2738
rfemur -11.0909 7.90446 31.6193
rtibia 34.4088
rfoot -17.0202 -5.37726
rtoes 11.2231
lfemur -23.4081 0.524761 -14.9434
ltibia 58.8675
lfoot 0 0
ltoes 0
